# xmcd CD database file
#
# Track frame offsets:
#	150
#	34964
#	64681
#	91634
#	124525
#	150576
#	184415
#	200219
#
# Disc length: 2941 seconds
#
# Revision: 0
# Processed by: cddbd v1.5.2PL0 Copyright (c) Steve Scherf et al.
# Submitted via: CDex 1.70beta3
#
DISCID=680b7b08
DTITLE=Kondo Toshinori - 大変
DYEAR=1984
DGENRE=Jazz
TTITLE0=Taihen
TTITLE1=The Day After
TTITLE2=Takao Blue
TTITLE3=A Song for Buddha
TTITLE4=Oiwake
TTITLE5=Shosuke-San
TTITLE6=Taihen (Bill Laswell Special Mix)
TTITLE7=Shosuke-San (Bill Laswell Special Mix)
EXTD=YEAR: 1984
EXTT0=
EXTT1=
EXTT2=
EXTT3=
EXTT4=
EXTT5=
EXTT6=
EXTT7=
PLAYORDER=
